<svg width="13" height="12" viewBox="0 0 13 12" fill="none" xmlns="http://www.w3.org/2000/svg">
<path d="M6.5 4.12503V6.62502M1.80291 7.99989C1.2424 8.98438 0.962228 9.4768 1.00409 9.88073C1.04061 10.233 1.22295 10.5531 1.50558 10.7614C1.82949 11 2.38965 11 3.50991 11H9.49009C10.6103 11 11.1704 11 11.4943 10.7614C11.777 10.5531 11.9594 10.233 11.9959 9.88073C12.0378 9.4768 11.7577 8.98438 11.1972 7.99989L8.20814 2.74991C7.64763 1.76542 7.36726 1.27326 7.00137 1.10807C6.68222 0.963977 6.31757 0.963977 5.99843 1.10807C5.63269 1.27319 5.35248 1.76536 4.79244 2.74902L1.80291 7.99989ZM6.5313 8.50001V8.56251L6.4693 8.56263V8.50001H6.5313Z" stroke="white" stroke-linecap="round" stroke-linejoin="round"/>
</svg>
