<svg width="16" height="16" viewBox="0 0 16 16" fill="none" xmlns="http://www.w3.org/2000/svg">
<path d="M5.65513 1.93333H3.97513C2.9297 1.93333 2.40659 1.93333 2.00729 2.13679C1.65606 2.31575 1.3707 2.60111 1.19174 2.95234C0.988281 3.35165 0.988281 3.87475 0.988281 4.92018V12.0135C0.988281 13.0589 0.988281 13.5814 1.19174 13.9807C1.3707 14.3319 1.65606 14.6178 2.00729 14.7967C2.4062 15 2.92868 15 3.97206 15H11.0712C12.1146 15 12.6363 15 13.0352 14.7967C13.3864 14.6178 13.6727 14.3317 13.8517 13.9804C14.0549 13.5815 14.0549 13.0596 14.0549 12.0162V10.3333M14.9883 5.66667V1M14.9883 1H10.3216M14.9883 1L8.45495 7.53333" stroke="#9E9E9E" stroke-linecap="round" stroke-linejoin="round"/>
</svg>
