<svg width="47" height="67" viewBox="0 0 47 67" fill="none" xmlns="http://www.w3.org/2000/svg">
<path d="M3 26.722L3 53.8333C3 56.9913 3 58.5712 3.52016 59.8168C4.2137 61.4776 5.54476 62.7962 7.21912 63.4841C8.47489 64 10.0669 64 13.2508 64C13.2508 58.3851 17.8383 53.8333 23.4992 53.8333C29.1601 53.8333 33.75 58.3851 33.75 64C36.9339 64 38.5259 64 39.7817 63.4841C41.456 62.7962 42.786 61.4776 43.4795 59.8168C43.9996 58.5713 44 56.9913 44 53.8333V26.722M3 26.722L3 13.1664C3 10.0083 3 8.42927 3.52016 7.1837C4.2137 5.52295 5.54476 4.20383 7.21912 3.51593C8.47488 3 10.0669 3 13.2508 3C13.2508 8.61493 17.8391 13.1664 23.5 13.1664C29.1609 13.1664 33.75 8.61493 33.75 3C36.9339 3 38.5259 3 39.7817 3.51593C41.456 4.20383 42.786 5.52295 43.4795 7.1837C43.9996 8.42927 44 10.0083 44 13.1664V26.722M3 26.722H44" stroke="#595CF3" stroke-width="6" stroke-linecap="round" stroke-linejoin="round"/>
</svg>
