<svg width="70" height="79" viewBox="0 0 70 79" fill="none" xmlns="http://www.w3.org/2000/svg">
<path d="M15 32.722L15 59.8333C15 62.9913 15 64.5712 15.5075 65.8168C16.1841 67.4776 17.4827 68.7962 19.1162 69.4841C20.3414 70 21.8945 70 25.0008 70C25.0008 64.3851 29.4764 59.8333 34.9992 59.8333C40.5221 59.8333 45 64.3851 45 70C48.1063 70 49.6594 70 50.8846 69.4841C52.5181 68.7962 53.8156 67.4776 54.4922 65.8168C54.9997 64.5713 55 62.9913 55 59.8333V32.722M15 32.722L15 19.1664C15 16.0083 15 14.4293 15.5075 13.1837C16.1841 11.5229 17.4827 10.2038 19.1162 9.51593C20.3413 9 21.8945 9 25.0008 9C25.0008 14.6149 29.4772 19.1664 35 19.1664C40.5228 19.1664 45 14.6149 45 9C48.1063 9 49.6594 9 50.8846 9.51593C52.5181 10.2038 53.8156 11.5229 54.4922 13.1837C54.9997 14.4293 55 16.0083 55 19.1664V32.722M15 32.722H55" stroke="url(#paint0_linear_18_5)" stroke-width="6" stroke-linecap="round" stroke-linejoin="round"/>
<defs>
<linearGradient id="paint0_linear_18_5" x1="35" y1="-7" x2="35" y2="80.5" gradientUnits="userSpaceOnUse">
<stop stop-color="#0C8CBF"/>
<stop offset="1" stop-color="#B00C3F"/>
</linearGradient>
</defs>
</svg>
