<svg width="247" height="67" viewBox="0 0 247 67" fill="none" xmlns="http://www.w3.org/2000/svg">
<path d="M3 26.722L3 53.8333C3 56.9913 3 58.5712 3.52016 59.8168C4.2137 61.4776 5.54476 62.7962 7.21912 63.4841C8.47489 64 10.0669 64 13.2508 64C13.2508 58.3851 17.8383 53.8333 23.4992 53.8333C29.1601 53.8333 33.75 58.3851 33.75 64C36.9339 64 38.5259 64 39.7817 63.4841C41.456 62.7962 42.786 61.4776 43.4795 59.8168C43.9996 58.5713 44 56.9913 44 53.8333V26.722M3 26.722L3 13.1664C3 10.0083 3 8.42927 3.52016 7.1837C4.2137 5.52295 5.54476 4.20383 7.21912 3.51593C8.47488 3 10.0669 3 13.2508 3C13.2508 8.61493 17.8391 13.1664 23.5 13.1664C29.1609 13.1664 33.75 8.61493 33.75 3C36.9339 3 38.5259 3 39.7817 3.51593C41.456 4.20383 42.786 5.52295 43.4795 7.1837C43.9996 8.42927 44 10.0083 44 13.1664V26.722M3 26.722H44" stroke="#595CF3" stroke-width="6" stroke-linecap="round" stroke-linejoin="round"/>
<path d="M62.16 46V20.8H67.524L77.352 37.018V20.8H82.32V46H76.956L67.128 29.782V46H62.16ZM94.1972 46.468C92.5412 46.468 91.0292 46.042 89.6612 45.19C88.3052 44.338 87.2192 43.192 86.4032 41.752C85.5992 40.312 85.1972 38.722 85.1972 36.982C85.1972 35.674 85.4312 34.45 85.8992 33.31C86.3672 32.158 87.0092 31.15 87.8252 30.286C88.6532 29.41 89.6132 28.726 90.7052 28.234C91.7972 27.742 92.9612 27.496 94.1972 27.496C95.6252 27.496 96.9272 27.802 98.1032 28.414C99.2912 29.026 100.293 29.86 101.109 30.916C101.937 31.972 102.525 33.166 102.873 34.498C103.233 35.83 103.293 37.216 103.053 38.656H90.5612C90.7172 39.184 90.9572 39.664 91.2812 40.096C91.6172 40.516 92.0252 40.852 92.5052 41.104C92.9972 41.356 93.5612 41.488 94.1972 41.5C94.8212 41.512 95.3972 41.368 95.9252 41.068C96.4532 40.768 96.9032 40.366 97.2752 39.862L102.351 41.032C101.619 42.628 100.527 43.936 99.0752 44.956C97.6232 45.964 95.9972 46.468 94.1972 46.468ZM90.3812 34.984H98.0312C97.8752 34.384 97.6112 33.844 97.2392 33.364C96.8672 32.884 96.4172 32.506 95.8892 32.23C95.3732 31.954 94.8092 31.816 94.1972 31.816C93.5972 31.816 93.0332 31.954 92.5052 32.23C91.9892 32.506 91.5452 32.884 91.1732 33.364C90.8132 33.832 90.5492 34.372 90.3812 34.984ZM103.663 46L110.251 36.964L103.735 28H109.855L113.293 32.716L116.767 28H122.905L116.371 36.964L122.959 46H116.839L113.293 41.176L109.783 46H103.663ZM136.358 32.968H133.118V46H128.15V32.968H125.666V28H128.15V22.348H133.118V28H136.358V32.968Z" fill="white"/>
<path d="M158.671 20.8V23.32H150.031V46H147.511V23.32H138.889V20.8H158.671ZM160.07 28H162.59V46H160.07V28ZM161.348 24.85C160.94 24.85 160.592 24.718 160.304 24.454C160.028 24.178 159.89 23.836 159.89 23.428C159.89 23.02 160.028 22.684 160.304 22.42C160.592 22.144 160.94 22.006 161.348 22.006C161.744 22.006 162.08 22.144 162.356 22.42C162.644 22.684 162.788 23.02 162.788 23.428C162.788 23.836 162.65 24.178 162.374 24.454C162.098 24.718 161.756 24.85 161.348 24.85ZM179.602 41.482L181.852 42.706C181.036 43.846 179.998 44.758 178.738 45.442C177.49 46.126 176.134 46.468 174.67 46.468C173.014 46.468 171.502 46.042 170.134 45.19C168.778 44.338 167.692 43.198 166.876 41.77C166.072 40.33 165.67 38.74 165.67 37C165.67 35.68 165.904 34.45 166.372 33.31C166.84 32.158 167.482 31.15 168.298 30.286C169.126 29.41 170.086 28.726 171.178 28.234C172.27 27.742 173.434 27.496 174.67 27.496C176.134 27.496 177.49 27.838 178.738 28.522C179.998 29.206 181.036 30.124 181.852 31.276L179.602 32.482C178.978 31.69 178.228 31.084 177.352 30.664C176.476 30.232 175.582 30.016 174.67 30.016C173.458 30.016 172.36 30.34 171.376 30.988C170.392 31.624 169.612 32.47 169.036 33.526C168.472 34.582 168.19 35.74 168.19 37C168.19 38.26 168.478 39.418 169.054 40.474C169.642 41.53 170.428 42.376 171.412 43.012C172.396 43.636 173.482 43.948 174.67 43.948C175.654 43.948 176.578 43.72 177.442 43.264C178.306 42.808 179.026 42.214 179.602 41.482ZM198.913 46H196.015L190.975 37.306L187.375 41.608V46H184.855V19H187.375V37.684L195.493 28H198.787L192.685 35.254L198.913 46ZM209.088 46.468C207.432 46.468 205.92 46.042 204.552 45.19C203.196 44.338 202.11 43.198 201.294 41.77C200.49 40.33 200.088 38.74 200.088 37C200.088 35.68 200.322 34.45 200.79 33.31C201.258 32.158 201.9 31.15 202.716 30.286C203.544 29.41 204.504 28.726 205.596 28.234C206.688 27.742 207.852 27.496 209.088 27.496C210.42 27.496 211.644 27.76 212.76 28.288C213.888 28.816 214.854 29.554 215.658 30.502C216.474 31.45 217.086 32.56 217.494 33.832C217.914 35.104 218.088 36.478 218.016 37.954H202.752C202.896 39.094 203.256 40.114 203.832 41.014C204.42 41.914 205.164 42.628 206.064 43.156C206.976 43.672 207.984 43.936 209.088 43.948C210.288 43.948 211.368 43.636 212.328 43.012C213.3 42.388 214.08 41.53 214.668 40.438L217.224 41.032C216.504 42.628 215.418 43.936 213.966 44.956C212.514 45.964 210.888 46.468 209.088 46.468ZM202.68 35.92H215.478C215.394 34.804 215.052 33.784 214.452 32.86C213.864 31.924 213.102 31.18 212.166 30.628C211.23 30.064 210.204 29.782 209.088 29.782C207.972 29.782 206.952 30.058 206.028 30.61C205.104 31.15 204.348 31.888 203.76 32.824C203.172 33.748 202.812 34.78 202.68 35.92ZM229.983 30.52H225.681L225.663 46H223.143L223.161 30.52H219.903V28H223.161L223.143 22.348H225.663L225.681 28H229.983V30.52ZM238.617 46.342C237.633 46.318 236.673 46.138 235.737 45.802C234.801 45.466 233.985 45.01 233.289 44.434C232.593 43.858 232.095 43.204 231.795 42.472L233.973 41.536C234.165 42.004 234.519 42.436 235.035 42.832C235.563 43.216 236.163 43.528 236.835 43.768C237.507 43.996 238.173 44.11 238.833 44.11C239.565 44.11 240.249 43.99 240.885 43.75C241.521 43.51 242.037 43.168 242.433 42.724C242.841 42.268 243.045 41.734 243.045 41.122C243.045 40.462 242.829 39.946 242.397 39.574C241.965 39.19 241.419 38.89 240.759 38.674C240.099 38.446 239.421 38.23 238.725 38.026C237.453 37.678 236.331 37.294 235.359 36.874C234.387 36.454 233.625 35.92 233.073 35.272C232.533 34.612 232.263 33.766 232.263 32.734C232.263 31.642 232.569 30.7 233.181 29.908C233.805 29.104 234.615 28.486 235.611 28.054C236.619 27.61 237.693 27.388 238.833 27.388C240.297 27.388 241.629 27.706 242.829 28.342C244.041 28.978 244.917 29.824 245.457 30.88L243.423 32.086C243.207 31.594 242.865 31.168 242.397 30.808C241.929 30.448 241.395 30.166 240.795 29.962C240.207 29.758 239.607 29.65 238.995 29.638C238.227 29.626 237.513 29.74 236.853 29.98C236.193 30.208 235.659 30.55 235.251 31.006C234.855 31.462 234.657 32.02 234.657 32.68C234.657 33.34 234.855 33.844 235.251 34.192C235.647 34.528 236.181 34.804 236.853 35.02C237.537 35.224 238.305 35.464 239.157 35.74C240.249 36.088 241.275 36.484 242.235 36.928C243.195 37.372 243.969 37.924 244.557 38.584C245.145 39.244 245.433 40.078 245.421 41.086C245.421 42.166 245.097 43.108 244.449 43.912C243.801 44.716 242.961 45.334 241.929 45.766C240.897 46.186 239.793 46.378 238.617 46.342Z" fill="#595CF3"/>
</svg>
