<svg width="271" height="79" viewBox="0 0 271 79" fill="none" xmlns="http://www.w3.org/2000/svg">
<path d="M15 32.722L15 59.8333C15 62.9913 15 64.5712 15.5075 65.8168C16.1841 67.4776 17.4827 68.7962 19.1162 69.4841C20.3414 70 21.8945 70 25.0008 70C25.0008 64.3851 29.4764 59.8333 34.9992 59.8333C40.5221 59.8333 45 64.3851 45 70C48.1063 70 49.6594 70 50.8846 69.4841C52.5181 68.7962 53.8156 67.4776 54.4922 65.8168C54.9997 64.5713 55 62.9913 55 59.8333V32.722M15 32.722L15 19.1664C15 16.0083 15 14.4293 15.5075 13.1837C16.1841 11.5229 17.4827 10.2038 19.1162 9.51593C20.3413 9 21.8945 9 25.0008 9C25.0008 14.6149 29.4772 19.1664 35 19.1664C40.5228 19.1664 45 14.6149 45 9C48.1063 9 49.6594 9 50.8846 9.51593C52.5181 10.2038 53.8156 11.5229 54.4922 13.1837C54.9997 14.4293 55 16.0083 55 19.1664V32.722M15 32.722H55" stroke="url(#paint0_linear_18_5)" stroke-width="6" stroke-linecap="round" stroke-linejoin="round"/>
<path d="M86.16 52V26.8H91.524L101.352 43.018V26.8H106.32V52H100.956L91.128 35.782V52H86.16ZM118.197 52.468C116.541 52.468 115.029 52.042 113.661 51.19C112.305 50.338 111.219 49.192 110.403 47.752C109.599 46.312 109.197 44.722 109.197 42.982C109.197 41.674 109.431 40.45 109.899 39.31C110.367 38.158 111.009 37.15 111.825 36.286C112.653 35.41 113.613 34.726 114.705 34.234C115.797 33.742 116.961 33.496 118.197 33.496C119.625 33.496 120.927 33.802 122.103 34.414C123.291 35.026 124.293 35.86 125.109 36.916C125.937 37.972 126.525 39.166 126.873 40.498C127.233 41.83 127.293 43.216 127.053 44.656H114.561C114.717 45.184 114.957 45.664 115.281 46.096C115.617 46.516 116.025 46.852 116.505 47.104C116.997 47.356 117.561 47.488 118.197 47.5C118.821 47.512 119.397 47.368 119.925 47.068C120.453 46.768 120.903 46.366 121.275 45.862L126.351 47.032C125.619 48.628 124.527 49.936 123.075 50.956C121.623 51.964 119.997 52.468 118.197 52.468ZM114.381 40.984H122.031C121.875 40.384 121.611 39.844 121.239 39.364C120.867 38.884 120.417 38.506 119.889 38.23C119.373 37.954 118.809 37.816 118.197 37.816C117.597 37.816 117.033 37.954 116.505 38.23C115.989 38.506 115.545 38.884 115.173 39.364C114.813 39.832 114.549 40.372 114.381 40.984ZM127.663 52L134.251 42.964L127.735 34H133.855L137.293 38.716L140.767 34H146.905L140.371 42.964L146.959 52H140.839L137.293 47.176L133.783 52H127.663ZM160.358 38.968H157.118V52H152.15V38.968H149.666V34H152.15V28.348H157.118V34H160.358V38.968Z" fill="#0C8CBF"/>
<path d="M182.671 26.8V29.32H174.031V52H171.511V29.32H162.889V26.8H182.671ZM184.07 34H186.59V52H184.07V34ZM185.348 30.85C184.94 30.85 184.592 30.718 184.304 30.454C184.028 30.178 183.89 29.836 183.89 29.428C183.89 29.02 184.028 28.684 184.304 28.42C184.592 28.144 184.94 28.006 185.348 28.006C185.744 28.006 186.08 28.144 186.356 28.42C186.644 28.684 186.788 29.02 186.788 29.428C186.788 29.836 186.65 30.178 186.374 30.454C186.098 30.718 185.756 30.85 185.348 30.85ZM203.602 47.482L205.852 48.706C205.036 49.846 203.998 50.758 202.738 51.442C201.49 52.126 200.134 52.468 198.67 52.468C197.014 52.468 195.502 52.042 194.134 51.19C192.778 50.338 191.692 49.198 190.876 47.77C190.072 46.33 189.67 44.74 189.67 43C189.67 41.68 189.904 40.45 190.372 39.31C190.84 38.158 191.482 37.15 192.298 36.286C193.126 35.41 194.086 34.726 195.178 34.234C196.27 33.742 197.434 33.496 198.67 33.496C200.134 33.496 201.49 33.838 202.738 34.522C203.998 35.206 205.036 36.124 205.852 37.276L203.602 38.482C202.978 37.69 202.228 37.084 201.352 36.664C200.476 36.232 199.582 36.016 198.67 36.016C197.458 36.016 196.36 36.34 195.376 36.988C194.392 37.624 193.612 38.47 193.036 39.526C192.472 40.582 192.19 41.74 192.19 43C192.19 44.26 192.478 45.418 193.054 46.474C193.642 47.53 194.428 48.376 195.412 49.012C196.396 49.636 197.482 49.948 198.67 49.948C199.654 49.948 200.578 49.72 201.442 49.264C202.306 48.808 203.026 48.214 203.602 47.482ZM222.913 52H220.015L214.975 43.306L211.375 47.608V52H208.855V25H211.375V43.684L219.493 34H222.787L216.685 41.254L222.913 52ZM233.088 52.468C231.432 52.468 229.92 52.042 228.552 51.19C227.196 50.338 226.11 49.198 225.294 47.77C224.49 46.33 224.088 44.74 224.088 43C224.088 41.68 224.322 40.45 224.79 39.31C225.258 38.158 225.9 37.15 226.716 36.286C227.544 35.41 228.504 34.726 229.596 34.234C230.688 33.742 231.852 33.496 233.088 33.496C234.42 33.496 235.644 33.76 236.76 34.288C237.888 34.816 238.854 35.554 239.658 36.502C240.474 37.45 241.086 38.56 241.494 39.832C241.914 41.104 242.088 42.478 242.016 43.954H226.752C226.896 45.094 227.256 46.114 227.832 47.014C228.42 47.914 229.164 48.628 230.064 49.156C230.976 49.672 231.984 49.936 233.088 49.948C234.288 49.948 235.368 49.636 236.328 49.012C237.3 48.388 238.08 47.53 238.668 46.438L241.224 47.032C240.504 48.628 239.418 49.936 237.966 50.956C236.514 51.964 234.888 52.468 233.088 52.468ZM226.68 41.92H239.478C239.394 40.804 239.052 39.784 238.452 38.86C237.864 37.924 237.102 37.18 236.166 36.628C235.23 36.064 234.204 35.782 233.088 35.782C231.972 35.782 230.952 36.058 230.028 36.61C229.104 37.15 228.348 37.888 227.76 38.824C227.172 39.748 226.812 40.78 226.68 41.92ZM253.983 36.52H249.681L249.663 52H247.143L247.161 36.52H243.903V34H247.161L247.143 28.348H249.663L249.681 34H253.983V36.52ZM262.617 52.342C261.633 52.318 260.673 52.138 259.737 51.802C258.801 51.466 257.985 51.01 257.289 50.434C256.593 49.858 256.095 49.204 255.795 48.472L257.973 47.536C258.165 48.004 258.519 48.436 259.035 48.832C259.563 49.216 260.163 49.528 260.835 49.768C261.507 49.996 262.173 50.11 262.833 50.11C263.565 50.11 264.249 49.99 264.885 49.75C265.521 49.51 266.037 49.168 266.433 48.724C266.841 48.268 267.045 47.734 267.045 47.122C267.045 46.462 266.829 45.946 266.397 45.574C265.965 45.19 265.419 44.89 264.759 44.674C264.099 44.446 263.421 44.23 262.725 44.026C261.453 43.678 260.331 43.294 259.359 42.874C258.387 42.454 257.625 41.92 257.073 41.272C256.533 40.612 256.263 39.766 256.263 38.734C256.263 37.642 256.569 36.7 257.181 35.908C257.805 35.104 258.615 34.486 259.611 34.054C260.619 33.61 261.693 33.388 262.833 33.388C264.297 33.388 265.629 33.706 266.829 34.342C268.041 34.978 268.917 35.824 269.457 36.88L267.423 38.086C267.207 37.594 266.865 37.168 266.397 36.808C265.929 36.448 265.395 36.166 264.795 35.962C264.207 35.758 263.607 35.65 262.995 35.638C262.227 35.626 261.513 35.74 260.853 35.98C260.193 36.208 259.659 36.55 259.251 37.006C258.855 37.462 258.657 38.02 258.657 38.68C258.657 39.34 258.855 39.844 259.251 40.192C259.647 40.528 260.181 40.804 260.853 41.02C261.537 41.224 262.305 41.464 263.157 41.74C264.249 42.088 265.275 42.484 266.235 42.928C267.195 43.372 267.969 43.924 268.557 44.584C269.145 45.244 269.433 46.078 269.421 47.086C269.421 48.166 269.097 49.108 268.449 49.912C267.801 50.716 266.961 51.334 265.929 51.766C264.897 52.186 263.793 52.378 262.617 52.342Z" fill="#B00C3F"/>
<defs>
<linearGradient id="paint0_linear_18_5" x1="35" y1="-7" x2="35" y2="80.5" gradientUnits="userSpaceOnUse">
<stop stop-color="#0C8CBF"/>
<stop offset="1" stop-color="#B00C3F"/>
</linearGradient>
</defs>
</svg>
